<svg xmlns="http://www.w3.org/2000/svg" viewBox="0 0 247.25 72.26"><defs><style>.cls-1{font-size:10px;font-family:Oxygen-Regular, Oxygen;}.cls-1,.cls-11{fill:#222221;}.cls-2,.cls-3,.cls-4,.cls-5,.cls-6{fill:none;stroke:#636363;}.cls-10,.cls-2,.cls-3,.cls-4,.cls-5,.cls-6{stroke-miterlimit:10;}.cls-3{stroke-dasharray:9.46 3.78;}.cls-4{stroke-dasharray:8.13 3.25;}.cls-5{stroke-width:0.5px;}.cls-6{stroke-dasharray:5.52 2.21;}.cls-7,.cls-9{fill:#636363;}.cls-8{letter-spacing:-0.01em;}.cls-11,.cls-9{font-size:7px;}.cls-9{font-family:OxygenMono-Regular, Oxygen Mono;}.cls-10{fill:#fff;stroke:#020201;stroke-width:0.75px;}.cls-11{font-family:ZapfDingbatsITC, Zapf Dingbats;}</style></defs><title>exam-executionElement 3</title><g id="Ebene_2" data-name="Ebene 2"><g id="Ebene_1-2" data-name="Ebene 1"><text class="cls-1" transform="translate(42.35 41.86)">Fill out exam</text><polyline class="cls-2" points="111.06 51.33 111.06 56.33 106.06 56.33"/><line class="cls-3" x1="102.27" y1="56.33" x2="37.95" y2="56.33"/><polyline class="cls-2" points="36.06 56.33 31.06 56.33 31.06 51.33"/><line class="cls-4" x1="31.06" y1="48.08" x2="31.06" y2="26.96"/><polyline class="cls-2" points="31.06 25.33 31.06 20.33 36.06 20.33"/><line class="cls-3" x1="39.84" y1="20.33" x2="104.16" y2="20.33"/><polyline class="cls-2" points="106.06 20.33 111.06 20.33 111.06 25.33"/><line class="cls-4" x1="111.06" y1="28.58" x2="111.06" y2="49.71"/><rect class="cls-5" x="0.25" y="0.25" width="246.75" height="71.76"/><line class="cls-2" x1="111.06" y1="38.33" x2="116.06" y2="38.33"/><line class="cls-6" x1="118.26" y1="38.33" x2="124.89" y2="38.33"/><line class="cls-2" x1="125.99" y1="38.33" x2="130.99" y2="38.33"/><polygon class="cls-7" points="130.12 41.33 135.3 38.33 130.12 35.34 130.12 41.33"/><text class="cls-1" transform="translate(145.19 41.86)">Cor<tspan class="cls-8" x="15.81" y="0">r</tspan><tspan x="19.35" y="0">ect exam</tspan></text><polyline class="cls-2" points="215.21 51.33 215.21 56.33 210.21 56.33"/><line class="cls-3" x1="206.43" y1="56.33" x2="142.1" y2="56.33"/><polyline class="cls-2" points="140.21 56.33 135.21 56.33 135.21 51.33"/><line class="cls-4" x1="135.21" y1="48.08" x2="135.21" y2="26.96"/><polyline class="cls-2" points="135.21 25.33 135.21 20.33 140.21 20.33"/><line class="cls-3" x1="143.99" y1="20.33" x2="208.32" y2="20.33"/><polyline class="cls-2" points="210.21 20.33 215.21 20.33 215.21 25.33"/><line class="cls-4" x1="215.21" y1="28.58" x2="215.21" y2="49.71"/><text class="cls-9" transform="translate(32.84 27.95)">Work Item</text><text class="cls-9" transform="translate(137.87 27.95)">Work Item</text><text class="cls-9" transform="translate(4.62 9.92)">Case</text><circle class="cls-10" cx="111.06" cy="56.33" r="5.21"/><text class="cls-11" transform="translate(108.09 58.91)">✔</text></g></g></svg>