<svg id="Ebene_1" data-name="Ebene 1" xmlns="http://www.w3.org/2000/svg" viewBox="0 0 247.25 80.35"><defs><style>.cls-1,.cls-5{font-size:10px;}.cls-1,.cls-4{fill:#222221;}.cls-1{font-family:Oxygen-Regular, Oxygen;}.cls-2,.cls-3,.cls-8{fill:none;stroke-miterlimit:10;}.cls-2{stroke:#222221;}.cls-3{stroke:#636363;}.cls-3,.cls-8{stroke-width:0.5px;}.cls-5{fill:#636363;font-family:Oxygen-Light, Oxygen;}.cls-6{letter-spacing:-0.01em;}.cls-7{fill:#020201;}.cls-8{stroke:#fff;}</style></defs><title>exam-design</title><text class="cls-1" transform="translate(42.35 49.95)">Fill out exam</text><rect class="cls-2" x="31.06" y="28.43" width="80" height="36"/><rect class="cls-3" x="0.25" y="0.25" width="246.75" height="79.85"/><line class="cls-2" x1="111.06" y1="46.43" x2="130.99" y2="46.43"/><polygon class="cls-4" points="130.12 49.42 135.3 46.43 130.12 43.44 130.12 49.42"/><text class="cls-5" transform="translate(6.84 14.51)">Exam</text><text class="cls-1" transform="translate(145.19 49.95)">Cor<tspan class="cls-6" x="15.81" y="0">r</tspan><tspan x="19.35" y="0">ect exam</tspan></text><rect class="cls-2" x="135.21" y="28.43" width="80" height="36"/><circle class="cls-7" cx="11.72" cy="46.06" r="4.89"/><circle class="cls-7" cx="236.15" cy="46.43" r="4.89"/><line class="cls-2" x1="9.48" y1="46.06" x2="26.75" y2="46.06"/><polygon class="cls-4" points="25.88 49.05 31.06 46.06 25.88 43.07 25.88 49.05"/><line class="cls-2" x1="215.21" y1="46.43" x2="226.94" y2="46.43"/><polygon class="cls-4" points="226.06 49.42 231.24 46.43 226.06 43.44 226.06 49.42"/><circle class="cls-8" cx="236.15" cy="46.43" r="4.17"/></svg>