<svg id="Ebene_1" data-name="Ebene 1" xmlns="http://www.w3.org/2000/svg" viewBox="0 0 204.15 126.55"><defs><style>.cls-1,.cls-4{fill:#222221;}.cls-2,.cls-3,.cls-7{fill:none;stroke-miterlimit:10;}.cls-2,.cls-3{stroke:#979a97;stroke-width:0.5px;}.cls-3{stroke-dasharray:4 2;}.cls-4{font-size:12px;font-family:Oxygen-Regular, Oxygen;}.cls-5{letter-spacing:-0.02em;}.cls-6{letter-spacing:0em;}.cls-7{stroke:#222221;}.cls-8{letter-spacing:-0.02em;}.cls-9{letter-spacing:-0.01em;}.cls-10{font-size:10px;fill:#5e605d;font-family:Oxygen-Light, Oxygen;}.cls-11{letter-spacing:-0.01em;}</style></defs><title>workflow-entities</title><line class="cls-1" x1="101.92" x2="101.92" y2="126.05"/><line class="cls-2" x1="101.92" x2="101.92" y2="2"/><line class="cls-3" x1="101.92" y1="4" x2="101.92" y2="123.05"/><line class="cls-2" x1="101.92" y1="124.05" x2="101.92" y2="126.05"/><text class="cls-4" transform="translate(14.15 46.58)"><tspan class="cls-5">W</tspan><tspan x="11.53" y="0">orkfl</tspan><tspan class="cls-6" x="36.29" y="0">o</tspan><tspan x="43.28" y="0">w</tspan></text><rect class="cls-7" x="0.5" y="25.05" width="80" height="36"/><text class="cls-4" transform="translate(150.62 46.58)">Case</text><rect class="cls-7" x="123.65" y="25.05" width="80" height="36"/><text class="cls-4" transform="translate(28.33 111.58)"><tspan class="cls-8">T</tspan><tspan x="6.22" y="0">ask</tspan></text><rect class="cls-7" x="0.5" y="90.05" width="80" height="36"/><text class="cls-4" transform="translate(135.57 111.58)"><tspan class="cls-5">W</tspan><tspan x="11.53" y="0">ork I</tspan><tspan class="cls-9" x="35.2" y="0">t</tspan><tspan x="39.29" y="0">em</tspan></text><rect class="cls-7" x="123.65" y="90.05" width="80" height="36"/><line class="cls-7" x1="40.5" y1="61.05" x2="40.5" y2="90.05"/><line class="cls-7" x1="163.65" y1="61.05" x2="163.65" y2="90.05"/><line class="cls-7" x1="80.5" y1="43.05" x2="123.65" y2="43.05"/><line class="cls-7" x1="80.35" y1="108.05" x2="123.5" y2="108.05"/><text class="cls-10" transform="translate(0.5 11.14)">Design</text><text class="cls-10" transform="translate(123.5 11.14)">E<tspan class="cls-11" x="5.58" y="0">x</tspan><tspan x="10.45" y="0">ecution</tspan></text></svg>